<?xml version="1.0" encoding="UTF-8"?>
<svg viewBox="0 0 244.43 247.2" xmlns="http://www.w3.org/2000/svg">
    <g transform="translate(0 49.38)">
        <svg width="244.43" height="148.44" data-palette-color="#0063db"
            viewBox="3.8499999046325684 -35.70000076293945 60.349998474121094 36.650001525878906">
            <path class="undefined-text-0"
                d="m26.75 0h-22.9v-35h22.4v6.2h-15.85v7.45h12.3v6.2h-12.3v8.95h16.35v6.2zm33.45 0.95-12.2-11.6 3.95-4.25 12.2 11.6-3.95 4.25zm-13.25-0.25q-5 0-8.9-2.26-3.9-2.27-6.13-6.35-2.22-4.09-2.22-9.59t2.22-9.59q2.23-4.09 6.13-6.35t8.9-2.26 8.9 2.26 6.12 6.35q2.23 4.09 2.23 9.59t-2.23 9.59q-2.22 4.08-6.12 6.35-3.9 2.26-8.9 2.26zm0-6.2q3.5 0 5.85-1.55t3.52-4.26q1.18-2.72 1.18-6.19 0-3.48-1.18-6.19-1.17-2.71-3.52-4.26t-5.85-1.55-5.85 1.55-3.53 4.26q-1.17 2.71-1.17 6.19 0 3.47 1.17 6.19 1.18 2.71 3.53 4.26t5.85 1.55z"
                fill="#0063db" data-fill-palette-color="primary" />
        </svg>
    </g>
    <path
        d="m0 43.38v-42.38h244.43v42.38h-13.386v-28.993h-217.66v28.993h-13.387m0 160.44v42.38h244.43v-42.38h-13.386v28.993h-217.66v-28.993h-13.387"
        fill="#0063db" stroke="transparent" data-fill-palette-color="primary" />
</svg>